<?xml version="1.0" encoding="UTF-8"?>
<svg version="1.1" xmlns="http://www.w3.org/2000/svg" width="100" height="210">
<path d="M0 0 C16.5 0 33 0 50 0 C50 3.3 50 6.6 50 10 C36.8 10 23.6 10 10 10 C10 19.9 10 29.8 10 40 C36.4 40 62.8 40 90 40 C90 43.3 90 46.6 90 50 C60.3 50 30.6 50 0 50 C0 33.5 0 17 0 0 Z " fill="#505050" transform="translate(10,20)"/>
<path d="M0 0 C29.7 0 59.4 0 90 0 C90 3.3 90 6.6 90 10 C83.4 10 76.8 10 70 10 C70 23.2 70 36.4 70 50 C53.5 50 37 50 20 50 C20 46.7 20 43.4 20 40 C33.2 40 46.4 40 60 40 C60 30.1 60 20.2 60 10 C40.2 10 20.4 10 0 10 C0 6.7 0 3.4 0 0 Z " fill="#505050" transform="translate(10,0)"/>
<path d="M0 0 C3.3 0 6.6 0 10 0 C10 3.3 10 6.6 10 10 C13.3 10 16.6 10 20 10 C20 13.3 20 16.6 20 20 C16.7 20 13.4 20 10 20 C10 23.3 10 26.6 10 30 C13.3 30 16.6 30 20 30 C20 33.3 20 36.6 20 40 C-9.7 40 -39.4 40 -70 40 C-70 36.7 -70 33.4 -70 30 C-46.9 30 -23.8 30 0 30 C0 26.7 0 23.4 0 20 C-3.3 20 -6.6 20 -10 20 C-10 16.7 -10 13.4 -10 10 C-6.7 10 -3.4 10 0 10 C0 6.7 0 3.4 0 0 Z " fill="#505050" transform="translate(80,170)"/>
<path d="M0 0 C23.1 0 46.2 0 70 0 C70 3.3 70 6.6 70 10 C50.2 10 30.4 10 10 10 C10 16.6 10 23.2 10 30 C16.6 30 23.2 30 30 30 C30 33.3 30 36.6 30 40 C13.5 40 -3 40 -20 40 C-20 36.7 -20 33.4 -20 30 C-13.4 30 -6.8 30 0 30 C0 20.1 0 10.2 0 0 Z " fill="#505050" transform="translate(30,150)"/>
<path d="M0 0 C3.3 0 6.6 0 10 0 C10 13.2 10 26.4 10 40 C-16.4 40 -42.8 40 -70 40 C-70 46.6 -70 53.2 -70 60 C-73.3 60 -76.6 60 -80 60 C-80 50.1 -80 40.2 -80 30 C-53.6 30 -27.2 30 0 30 C0 20.1 0 10.2 0 0 Z " fill="#505050" transform="translate(90,100)"/>
<path d="M0 0 C29.7 0 59.4 0 90 0 C90 3.3 90 6.6 90 10 C63.6 10 37.2 10 10 10 C10 13.3 10 16.6 10 20 C13.3 20 16.6 20 20 20 C20 23.3 20 26.6 20 30 C16.7 30 13.4 30 10 30 C10 33.3 10 36.6 10 40 C6.7 40 3.4 40 0 40 C0 36.7 0 33.4 0 30 C-3.3 30 -6.6 30 -10 30 C-10 26.7 -10 23.4 -10 20 C-6.7 20 -3.4 20 0 20 C0 13.4 0 6.8 0 0 Z " fill="#505050" transform="translate(10,80)"/>
</svg>
