<svg width="854" height="91" viewBox="0 0 854 91" fill="none" xmlns="http://www.w3.org/2000/svg">
<g filter="url(#filter0_f_17_19)">
<path d="M793.538 52.9971L785.929 42.4413C785.73 42.1644 785.407 42 785.063 42H761.065C760.25 42 759.738 42.8676 760.14 43.5673L781.337 80.468C781.526 80.7968 781.88 81 782.263 81H816.936C817.524 81 818 80.53 818 79.9503V43.0497C818 42.47 817.524 42 816.936 42H796.532C795.945 42 795.469 42.47 795.469 43.0497V52.3887C795.469 53.4109 794.139 53.8301 793.538 52.9971Z" fill="#E1E1E1"/>
<path d="M793.538 52.9971L785.929 42.4413C785.73 42.1644 785.407 42 785.063 42H761.065C760.25 42 759.738 42.8676 760.14 43.5673L781.337 80.468C781.526 80.7968 781.88 81 782.263 81H816.936C817.524 81 818 80.53 818 79.9503V43.0497C818 42.47 817.524 42 816.936 42H796.532C795.945 42 795.469 42.47 795.469 43.0497V52.3887C795.469 53.4109 794.139 53.8301 793.538 52.9971Z" fill="#E1E1E1"/>
</g>
<g filter="url(#filter1_f_17_19)">
<path d="M736.609 80.1875H757.891C758.503 80.1875 759 79.7273 759 79.1597V43.0278C759 42.4602 758.503 42 757.891 42H736.609C735.997 42 735.5 42.4602 735.5 43.0278V79.1597C735.5 79.7273 735.997 80.1875 736.609 80.1875Z" fill="#E1E1E1"/>
<path d="M736.609 80.1875H757.891C758.503 80.1875 759 79.7273 759 79.1597V43.0278C759 42.4602 758.503 42 757.891 42H736.609C735.997 42 735.5 42.4602 735.5 43.0278V79.1597C735.5 79.7273 735.997 80.1875 736.609 80.1875Z" fill="#E1E1E1"/>
</g>
<g filter="url(#filter2_f_17_19)">
<path d="M795.133 33H816.867C817.493 33 818 32.5177 818 31.9228V11.0772C818 10.4823 817.493 10 816.867 10H795.133C794.507 10 794 10.4823 794 11.0772V31.9228C794 32.5177 794.507 33 795.133 33Z" fill="#E1E1E1"/>
<path d="M795.133 33H816.867C817.493 33 818 32.5177 818 31.9228V11.0772C818 10.4823 817.493 10 816.867 10H795.133C794.507 10 794 10.4823 794 11.0772V31.9228C794 32.5177 794.507 33 795.133 33Z" fill="#E1E1E1"/>
</g>
<g filter="url(#filter3_f_17_19)">
<path d="M779.846 31.2954L767.505 9.54352C767.314 9.20621 766.97 9 766.6 9H736.057C735.473 9 735 9.50325 735 10.124V31.876C735 32.4967 735.473 33 736.057 33H778.941C779.764 33 780.271 32.0446 779.846 31.2954Z" fill="#E1E1E1"/>
<path d="M779.846 31.2954L767.505 9.54352C767.314 9.20621 766.97 9 766.6 9H736.057C735.473 9 735 9.50325 735 10.124V31.876C735 32.4967 735.473 33 736.057 33H778.941C779.764 33 780.271 32.0446 779.846 31.2954Z" fill="#E1E1E1"/>
</g>
<g filter="url(#filter4_f_17_19)">
<path d="M624.476 81C623.604 81 622.166 80.7468 620.161 80.2403C612.054 78.2987 608 74.8377 608 69.8571V43.0497C608 42.47 608.486 42 609.086 42H629.927C630.527 42 631.014 42.47 631.014 43.0497V58.5877C631.014 61.2045 632.408 62.9351 635.198 63.7792L636.6 64.2316C636.711 64.2675 636.827 64.2857 636.944 64.2857H683.056C684.538 64.2857 686.063 63.6948 687.633 62.513C689.202 61.2468 689.986 59.9383 689.986 58.5877V43.0497C689.986 42.47 690.473 42 691.073 42H711.914C712.514 42 713 42.47 713 43.0497V69.8571C713 75.2597 708.162 78.8896 698.486 80.7468C697.527 80.9156 696.873 81 696.524 81H624.476Z" fill="#E1E1E1"/>
<path fill-rule="evenodd" clip-rule="evenodd" d="M620.161 80.2403C622.166 80.7468 623.604 81 624.476 81H696.524C696.873 81 697.527 80.9156 698.486 80.7468C708.162 78.8896 713 75.2597 713 69.8571V43.0497C713 42.47 712.514 42 711.914 42H691.073C690.473 42 689.986 42.47 689.986 43.0497V58.5877C689.986 59.9383 689.202 61.2468 687.633 62.513C686.063 63.6948 684.538 64.2857 683.056 64.2857H636.944C636.827 64.2857 636.711 64.2675 636.6 64.2316L635.198 63.7792C632.408 62.9351 631.014 61.2045 631.014 58.5877V43.0497C631.014 42.47 630.527 42 629.927 42H609.086C608.486 42 608 42.47 608 43.0497V69.8571C608 74.8377 612.054 78.2987 620.161 80.2403ZM610.449 43.319C609.848 43.319 609.362 43.789 609.362 44.3687V69.8571C609.362 71.9475 610.191 73.7044 611.941 75.199C613.738 76.7332 616.542 78.0148 620.488 78.9599L620.504 78.9639C622.509 79.4703 623.796 79.681 624.476 79.681H696.524C696.731 79.681 697.265 79.6208 698.232 79.4509C702.97 78.5405 706.359 77.2232 708.537 75.5888C710.66 73.9959 711.638 72.1072 711.638 69.8571V44.3687C711.638 43.789 711.152 43.319 710.551 43.319H692.435C691.835 43.319 691.348 43.789 691.348 44.3687V58.5877C691.348 60.4845 690.236 62.129 688.505 63.5263L688.487 63.5405L688.469 63.5541C686.742 64.8548 684.93 65.6047 683.056 65.6047H636.723C636.606 65.6047 636.489 65.5864 636.378 65.5506L634.792 65.0382C634.787 65.0369 634.783 65.0356 634.779 65.0344C633.202 64.5551 631.895 63.787 630.986 62.6598C630.068 61.5204 629.652 60.1317 629.652 58.5877V44.3687C629.652 43.789 629.165 43.319 628.565 43.319H610.449Z" fill="#E1E1E1"/>
<path d="M624.476 81C623.604 81 622.166 80.7468 620.161 80.2403C612.054 78.2987 608 74.8377 608 69.8571V43.0497C608 42.47 608.486 42 609.086 42H629.927C630.527 42 631.014 42.47 631.014 43.0497V58.5877C631.014 61.2045 632.408 62.9351 635.198 63.7792L636.6 64.2316C636.711 64.2675 636.827 64.2857 636.944 64.2857H683.056C684.538 64.2857 686.063 63.6948 687.633 62.513C689.202 61.2468 689.986 59.9383 689.986 58.5877V43.0497C689.986 42.47 690.473 42 691.073 42H711.914C712.514 42 713 42.47 713 43.0497V69.8571C713 75.2597 708.162 78.8896 698.486 80.7468C697.527 80.9156 696.873 81 696.524 81H624.476Z" fill="#E1E1E1"/>
</g>
<g filter="url(#filter5_f_17_19)">
<path d="M608.5 21.6893C608.5 18.1262 610.381 15.3917 614.144 13.4859C617.222 11.8286 620.728 11 624.662 11H695.338C699.272 11 702.778 11.7872 705.856 13.3616C709.619 15.3503 711.5 18.1262 711.5 21.6893V31.9696C711.5 32.5387 711.023 33 710.434 33H609.566C608.977 33 608.5 32.5387 608.5 31.9696V21.6893Z" fill="#E1E1E1"/>
<path d="M608.5 21.6893C608.5 18.1262 610.381 15.3917 614.144 13.4859C617.222 11.8286 620.728 11 624.662 11H695.338C699.272 11 702.778 11.7872 705.856 13.3616C709.619 15.3503 711.5 18.1262 711.5 21.6893V31.9696C711.5 32.5387 711.023 33 710.434 33H609.566C608.977 33 608.5 32.5387 608.5 31.9696V21.6893Z" fill="#E1E1E1"/>
</g>
<g filter="url(#filter6_f_17_19)">
<path d="M560.657 81H582.843C583.482 81 584 80.53 584 79.9503V43.0497C584 42.47 583.482 42 582.843 42H560.657C560.018 42 559.5 42.47 559.5 43.0497V79.9503C559.5 80.53 560.018 81 560.657 81Z" fill="#E1E1E1"/>
<path d="M560.657 81H582.843C583.482 81 584 80.53 584 79.9503V43.0497C584 42.47 583.482 42 582.843 42H560.657C560.018 42 559.5 42.47 559.5 43.0497V79.9503C559.5 80.53 560.018 81 560.657 81Z" fill="#E1E1E1"/>
</g>
<g filter="url(#filter7_f_17_19)">
<path d="M560.18 33H582.82C583.472 33 584 32.5177 584 31.9228V11.0772C584 10.4823 583.472 10 582.82 10H560.18C559.528 10 559 10.4823 559 11.0772V31.9228C559 32.5177 559.528 33 560.18 33Z" fill="#E1E1E1"/>
<path d="M560.18 33H582.82C583.472 33 584 32.5177 584 31.9228V11.0772C584 10.4823 583.472 10 582.82 10H560.18C559.528 10 559 10.4823 559 11.0772V31.9228C559 32.5177 559.528 33 560.18 33Z" fill="#E1E1E1"/>
</g>
<g filter="url(#filter8_f_17_19)">
<path d="M509.805 79.5602L494.589 58.1429C494.393 57.8669 494.077 57.7031 493.739 57.7031H469.172C468.595 57.7031 468.127 58.1733 468.127 58.7533V78.9498C468.127 79.5298 467.659 80 467.082 80H447.045C446.468 80 446 79.5298 446 78.9498V42.0306C446 41.4506 446.468 40.9804 447.045 40.9804H533.463C534.04 40.9804 534.508 41.4506 534.508 42.0306V46.5547C534.508 52.0444 529.898 55.6761 520.678 57.4497C520.52 57.4763 520.346 57.5029 520.154 57.5294C519.494 57.6211 519.15 58.3826 519.537 58.928L533.328 78.3394C533.822 79.0345 533.328 80 532.478 80H510.655C510.318 80 510.002 79.8362 509.805 79.5602Z" fill="#E1E1E1"/>
<path d="M509.805 79.5602L494.589 58.1429C494.393 57.8669 494.077 57.7031 493.739 57.7031H469.172C468.595 57.7031 468.127 58.1733 468.127 58.7533V78.9498C468.127 79.5298 467.659 80 467.082 80H447.045C446.468 80 446 79.5298 446 78.9498V42.0306C446 41.4506 446.468 40.9804 447.045 40.9804H533.463C534.04 40.9804 534.508 41.4506 534.508 42.0306V46.5547C534.508 52.0444 529.898 55.6761 520.678 57.4497C520.52 57.4763 520.346 57.5029 520.154 57.5294C519.494 57.6211 519.15 58.3826 519.537 58.928L533.328 78.3394C533.822 79.0345 533.328 80 532.478 80H510.655C510.318 80 510.002 79.8362 509.805 79.5602Z" fill="#E1E1E1"/>
</g>
<g filter="url(#filter9_f_17_19)">
<path d="M511.987 32.4577C511.664 29.4164 510.184 27.8957 507.547 27.8957H469.056C468.482 27.8957 468.017 28.3672 468.017 28.9489V32.4322C468.017 33.0138 467.552 33.4853 466.977 33.4853H447.039C446.465 33.4853 446 33.0138 446 32.4322V12.0531C446 11.4715 446.465 11 447.039 11H518.305C522.225 11 525.644 11.8046 528.563 13.4137C532.233 15.4462 534.067 18.2834 534.067 21.9251V32.4322C534.067 33.0138 533.602 33.4853 533.028 33.4853H513.067C512.502 33.4853 512.047 33.0267 511.987 32.4577Z" fill="#E1E1E1"/>
<path d="M511.987 32.4577C511.664 29.4164 510.184 27.8957 507.547 27.8957H469.056C468.482 27.8957 468.017 28.3672 468.017 28.9489V32.4322C468.017 33.0138 467.552 33.4853 466.977 33.4853H447.039C446.465 33.4853 446 33.0138 446 32.4322V12.0531C446 11.4715 446.465 11 447.039 11H518.305C522.225 11 525.644 11.8046 528.563 13.4137C532.233 15.4462 534.067 18.2834 534.067 21.9251V32.4322C534.067 33.0138 533.602 33.4853 533.028 33.4853H513.067C512.502 33.4853 512.047 33.0267 511.987 32.4577Z" fill="#E1E1E1"/>
</g>
<g filter="url(#filter10_f_17_19)">
<path d="M387.699 59.304L398.583 80.4103C398.769 80.7711 399.156 81 399.581 81H420.888C421.711 81 422.248 80.1842 421.884 79.4866L402.667 42.586C402.48 42.2272 402.094 42 401.671 42H349.203C348.779 42 348.392 42.2284 348.206 42.5885L329.114 79.4891C328.754 80.1865 329.291 81 330.112 81H351.157C351.581 81 351.969 80.7711 352.155 80.4103L363.039 59.304C363.225 58.9432 363.612 58.7143 364.037 58.7143H386.701C387.126 58.7143 387.513 58.9432 387.699 59.304Z" fill="#E1E1E1"/>
<path d="M387.699 59.304L398.583 80.4103C398.769 80.7711 399.156 81 399.581 81H420.888C421.711 81 422.248 80.1842 421.884 79.4866L402.667 42.586C402.48 42.2272 402.094 42 401.671 42H349.203C348.779 42 348.392 42.2284 348.206 42.5885L329.114 79.4891C328.754 80.1865 329.291 81 330.112 81H351.157C351.581 81 351.969 80.7711 352.155 80.4103L363.039 59.304C363.225 58.9432 363.612 58.7143 364.037 58.7143H386.701C387.126 58.7143 387.513 58.9432 387.699 59.304Z" fill="#E1E1E1"/>
</g>
<g filter="url(#filter11_f_17_19)">
<path d="M383.351 9H365.649C365.209 9 364.806 9.24783 364.606 9.64116L353.128 32.2994C352.733 33.0783 353.299 34 354.171 34H394.829C395.701 34 396.267 33.0783 395.872 32.2994L384.394 9.64116C384.194 9.24783 383.791 9 383.351 9Z" fill="#E1E1E1"/>
<path d="M383.351 9H365.649C365.209 9 364.806 9.24783 364.606 9.64116L353.128 32.2994C352.733 33.0783 353.299 34 354.171 34H394.829C395.701 34 396.267 33.0783 395.872 32.2994L384.394 9.64116C384.194 9.24783 383.791 9 383.351 9Z" fill="#E1E1E1"/>
</g>
<g filter="url(#filter12_f_17_19)">
<path d="M260.901 63.8759H305.688C306.284 63.8759 306.766 64.3583 306.766 64.9534V79.9553C306.766 80.5503 306.284 81.0327 305.688 81.0327H238.077C237.482 81.0327 237 80.5503 237 79.9553V42.0775C237 41.4824 237.482 41 238.077 41H258.746C259.341 41 259.823 41.4824 259.823 42.0775V62.7984C259.823 63.3935 260.305 63.8759 260.901 63.8759Z" fill="#E1E1E1"/>
<path d="M260.901 63.8759H305.688C306.284 63.8759 306.766 64.3583 306.766 64.9534V79.9553C306.766 80.5503 306.284 81.0327 305.688 81.0327H238.077C237.482 81.0327 237 80.5503 237 79.9553V42.0775C237 41.4824 237.482 41 238.077 41H258.746C259.341 41 259.823 41.4824 259.823 42.0775V62.7984C259.823 63.3935 260.305 63.8759 260.901 63.8759Z" fill="#E1E1E1"/>
</g>
<g filter="url(#filter13_f_17_19)">
<path d="M259 34.1394H237.14C236.51 34.1394 236 33.6332 236 33.0088V11.1306C236 10.5062 236.51 10 237.14 10H259C259.629 10 260.139 10.5062 260.139 11.1306V33.0088C260.139 33.6332 259.629 34.1394 259 34.1394Z" fill="#E1E1E1"/>
<path d="M259 34.1394H237.14C236.51 34.1394 236 33.6332 236 33.0088V11.1306C236 10.5062 236.51 10 237.14 10H259C259.629 10 260.139 10.5062 260.139 11.1306V33.0088C260.139 33.6332 259.629 34.1394 259 34.1394Z" fill="#E1E1E1"/>
</g>
<g filter="url(#filter14_f_17_19)">
<path d="M212.873 63.8762H166.008C165.386 63.8762 164.881 63.3938 164.881 62.7987V59.2347C164.881 58.6396 165.386 58.1572 166.008 58.1572H193.605C194.228 58.1572 194.732 57.6747 194.732 57.0797V42.0775C194.732 41.4824 194.228 41 193.605 41H142.127C141.505 41 141 41.4824 141 42.0775V79.9559C141 80.551 141.505 81.0334 142.127 81.0334H212.873C213.495 81.0334 214 80.551 214 79.9559V64.9537C214 64.3586 213.495 63.8762 212.873 63.8762Z" fill="#E1E1E1"/>
<path d="M212.873 63.8762H166.008C165.386 63.8762 164.881 63.3938 164.881 62.7987V59.2347C164.881 58.6396 165.386 58.1572 166.008 58.1572H193.605C194.228 58.1572 194.732 57.6747 194.732 57.0797V42.0775C194.732 41.4824 194.228 41 193.605 41H142.127C141.505 41 141 41.4824 141 42.0775V79.9559C141 80.551 141.505 81.0334 142.127 81.0334H212.873C213.495 81.0334 214 80.551 214 79.9559V64.9537C214 64.3586 213.495 63.8762 212.873 63.8762Z" fill="#E1E1E1"/>
</g>
<g filter="url(#filter15_f_17_19)">
<path d="M164.881 31.9287V28.3646C164.881 27.7696 165.386 27.2871 166.008 27.2871H211.516C212.138 27.2871 212.643 26.8047 212.643 26.2096V11.0775C212.643 10.4824 212.138 10 211.516 10H142.127C141.505 10 141 10.4824 141 11.0775V31.9287C141 32.5238 141.505 33.0062 142.127 33.0062H163.754C164.376 33.0062 164.881 32.5238 164.881 31.9287Z" fill="#E1E1E1"/>
</g>
<g filter="url(#filter16_f_17_19)">
<path d="M64.8285 81H86.9029C87.3556 81 87.7632 80.7419 87.9342 80.347L103.916 43.4464C104.215 42.7559 103.676 42 102.885 42H50.1149C49.3369 42 48.7985 42.7326 49.0722 43.4189L63.7858 80.3195C63.9491 80.7289 64.3645 81 64.8285 81Z" fill="#E1E1E1"/>
<path d="M64.8285 81.5H86.9029C87.5415 81.5 88.1376 81.1355 88.393 80.5457L104.375 43.6451C104.835 42.5822 103.989 41.5 102.885 41.5H50.1149C49.0292 41.5 48.1866 42.5479 48.6078 43.6041L63.3214 80.5047C63.5656 81.1171 64.1741 81.5 64.8285 81.5Z" stroke="#E1E1E1"/>
</g>
<g filter="url(#filter17_f_17_19)">
<path d="M117.829 10H94.3411C93.8478 10 93.4076 10.2846 93.2402 10.7117L85.0704 31.5572C84.7953 32.2593 85.3604 33 86.1713 33H108.51C108.984 33 109.412 32.7365 109.592 32.3327L118.911 11.4871C119.228 10.7782 118.661 10 117.829 10Z" fill="#E1E1E1"/>
<path d="M117.829 9.5H94.3411C93.6624 9.5 93.0243 9.89238 92.7747 10.5292L84.6049 31.3748C84.1787 32.4623 85.0721 33.5 86.1713 33.5H108.51C109.163 33.5 109.78 33.1367 110.049 32.5367L119.367 11.6912C119.858 10.5922 118.957 9.5 117.829 9.5Z" stroke="#E1E1E1"/>
</g>
<g filter="url(#filter18_f_17_19)">
<path d="M69.9278 31.5522L61.6603 10.7066C61.492 10.2822 61.0547 10 60.5654 10H37.1673C36.335 10 35.7707 10.7823 36.0911 11.4919L45.5033 32.3375C45.6845 32.7387 46.109 33 46.5795 33H68.8329C69.6433 33 70.2066 32.2552 69.9278 31.5522Z" fill="#E1E1E1"/>
<path d="M70.3926 31.3679L62.1251 10.5223C61.8743 9.89003 61.2404 9.5 60.5654 9.5H37.1673C36.0363 9.5 35.1399 10.6003 35.6354 11.6977L45.0476 32.5432C45.3166 33.1389 45.9298 33.5 46.5795 33.5H68.8329C69.935 33.5 70.8234 32.4542 70.3926 31.3679Z" stroke="#E1E1E1"/>
</g>
<g filter="url(#filter19_d_17_19)">
<path d="M65.6786 80H86.5406C86.9683 80 87.3536 79.7541 87.5152 79.3779L102.619 44.224C102.902 43.5663 102.393 42.8462 101.645 42.8462H51.7731C51.0378 42.8462 50.5291 43.544 50.7877 44.1979L64.6932 79.3517C64.8474 79.7417 65.2401 80 65.6786 80Z" fill="#13121A"/>
<path d="M115.83 11H94.7021C94.2584 11 93.8624 11.2642 93.7118 11.6607L86.3629 31.0121C86.1154 31.6638 86.6237 32.3514 87.3531 32.3514H107.447C107.874 32.3514 108.259 32.1067 108.421 31.7319L116.803 12.3805C117.088 11.7224 116.579 11 115.83 11Z" fill="#13121A"/>
<path d="M68.1054 31.0074L60.6416 11.656C60.4896 11.262 60.0949 11 59.6531 11H38.5297C37.7784 11 37.2689 11.7262 37.5582 12.385L46.0554 31.7364C46.2189 32.1088 46.6021 32.3514 47.027 32.3514H67.1169C67.8485 32.3514 68.3571 31.66 68.1054 31.0074Z" fill="#13121A"/>
<path d="M65.6786 80.5H86.5406C87.1566 80.5 87.7296 80.1455 87.9746 79.5753L103.079 44.4214C103.519 43.3971 102.711 42.3462 101.645 42.3462H51.7731C50.7243 42.3462 49.9201 43.3639 50.3227 44.3818L64.2282 79.5357C64.4624 80.1277 65.0473 80.5 65.6786 80.5ZM115.83 10.5H94.7021C94.0635 10.5 93.4731 10.8809 93.2444 11.4831L85.8955 30.8345C85.5102 31.849 86.3126 32.8514 87.3531 32.8514H107.447C108.062 32.8514 108.634 32.4987 108.88 31.9307L117.262 12.5793C117.706 11.5544 116.898 10.5 115.83 10.5ZM68.5719 30.8274L61.1081 11.4761C60.8773 10.8777 60.289 10.5 59.6531 10.5H38.5297C37.4585 10.5 36.6499 11.5602 37.1004 12.586L45.5976 31.9374C45.8454 32.5017 46.4151 32.8514 47.027 32.8514H67.1169C68.1606 32.8514 68.9637 31.8432 68.5719 30.8274Z" stroke="white"/>
</g>
<g filter="url(#filter20_d_17_19)">
<path d="M165.182 31.3514V28.0437C165.182 27.4914 165.653 27.0437 166.235 27.0437H208.726C209.307 27.0437 209.779 26.596 209.779 26.0437V12C209.779 11.4477 209.307 11 208.726 11H143.936C143.355 11 142.884 11.4477 142.884 12V31.3514C142.884 31.9037 143.355 32.3514 143.936 32.3514H164.129C164.711 32.3514 165.182 31.9037 165.182 31.3514Z" fill="#13121A"/>
<path d="M209.993 64.0769H166.235C165.653 64.0769 165.182 63.6292 165.182 63.0769V59.7692C165.182 59.2169 165.653 58.7692 166.235 58.7692H192.002C192.583 58.7692 193.055 58.3215 193.055 57.7692V43.8462C193.055 43.2939 192.583 42.8462 192.002 42.8462H143.936C143.355 42.8462 142.884 43.2939 142.884 43.8462V79C142.884 79.5523 143.355 80 143.936 80H209.993C210.574 80 211.045 79.5523 211.045 79V65.0769C211.045 64.5246 210.574 64.0769 209.993 64.0769Z" fill="#13121A"/>
<path d="M165.682 31.3514V28.0437C165.682 27.7915 165.905 27.5437 166.235 27.5437H208.726C209.559 27.5437 210.279 26.896 210.279 26.0437V12C210.279 11.1477 209.559 10.5 208.726 10.5H143.936C143.103 10.5 142.384 11.1477 142.384 12V31.3514C142.384 32.2037 143.103 32.8514 143.936 32.8514H164.129C164.962 32.8514 165.682 32.2037 165.682 31.3514ZM209.993 63.5769H166.235C165.905 63.5769 165.682 63.3292 165.682 63.0769V59.7692C165.682 59.517 165.905 59.2692 166.235 59.2692H192.002C192.835 59.2692 193.555 58.6216 193.555 57.7692V43.8462C193.555 42.9938 192.835 42.3462 192.002 42.3462H143.936C143.103 42.3462 142.384 42.9938 142.384 43.8462V79C142.384 79.8523 143.103 80.5 143.936 80.5H209.993C210.826 80.5 211.545 79.8523 211.545 79V65.0769C211.545 64.2246 210.826 63.5769 209.993 63.5769Z" stroke="white"/>
</g>
<g filter="url(#filter21_d_17_19)">
<path d="M260.397 64.0769H304.155C304.736 64.0769 305.207 64.5246 305.207 65.0769V79C305.207 79.5523 304.736 80 304.155 80H238.098C237.517 80 237.045 79.5523 237.045 79V43.8462C237.045 43.2939 237.517 42.8462 238.098 42.8462H258.291C258.872 42.8462 259.344 43.2939 259.344 43.8462V63.0769C259.344 63.6292 259.815 64.0769 260.397 64.0769Z" fill="#13121A"/>
<path d="M258.291 32.3514H238.098C237.517 32.3514 237.045 31.9037 237.045 31.3514V12C237.045 11.4477 237.517 11 238.098 11H258.291C258.872 11 259.344 11.4477 259.344 12V31.3514C259.344 31.9037 258.872 32.3514 258.291 32.3514Z" fill="#13121A"/>
<path d="M304.155 63.5769H260.397C260.067 63.5769 259.844 63.3292 259.844 63.0769V43.8462C259.844 42.9938 259.124 42.3462 258.291 42.3462H238.098C237.265 42.3462 236.545 42.9938 236.545 43.8462V79C236.545 79.8523 237.265 80.5 238.098 80.5H304.155C304.988 80.5 305.707 79.8523 305.707 79V65.0769C305.707 64.2246 304.988 63.5769 304.155 63.5769ZM238.098 32.8514H258.291C259.124 32.8514 259.844 32.2037 259.844 31.3514V12C259.844 11.1477 259.124 10.5 258.291 10.5H238.098C237.265 10.5 236.545 11.1477 236.545 12V31.3514C236.545 32.2037 237.265 32.8514 238.098 32.8514Z" stroke="white"/>
</g>
<g filter="url(#filter22_d_17_19)">
<path d="M386.862 59.331L397.181 79.4382C397.358 79.7819 397.725 80 398.127 80H418.33C419.109 80 419.618 79.2228 419.274 78.5583L401.053 43.4044C400.876 43.0626 400.51 42.8462 400.109 42.8462H350.363C349.96 42.8462 349.594 43.0637 349.417 43.4068L331.316 78.5606C330.974 79.225 331.483 80 332.261 80H352.215C352.618 80 352.985 79.7819 353.161 79.4382L363.48 59.331C363.657 58.9873 364.024 58.7692 364.427 58.7692H385.916C386.318 58.7692 386.686 58.9873 386.862 59.331Z" fill="#13121A"/>
<path d="M383.14 11H367.202C366.806 11 366.443 11.2117 366.264 11.5476L355.929 30.899C355.574 31.5642 356.083 32.3514 356.868 32.3514H393.475C394.26 32.3514 394.769 31.5642 394.413 30.899L384.079 11.5476C383.899 11.2117 383.537 11 383.14 11Z" fill="#13121A"/>
<path d="M386.417 59.5593L396.736 79.6665C397.003 80.1857 397.547 80.5 398.127 80.5H418.33C419.441 80.5 420.254 79.3634 419.718 78.3282L401.497 43.1743C401.229 42.6582 400.687 42.3462 400.109 42.3462H350.363C349.783 42.3462 349.239 42.6597 348.972 43.1779L330.871 78.3317C330.338 79.3667 331.152 80.5 332.261 80.5H352.215C352.795 80.5 353.34 80.1857 353.606 79.6665L363.925 59.5593C364.012 59.391 364.202 59.2692 364.427 59.2692H385.916C386.141 59.2692 386.331 59.391 386.417 59.5593ZM383.14 10.5H367.202C366.631 10.5 366.093 10.8051 365.822 11.312L355.488 30.6634C354.935 31.6999 355.749 32.8514 356.868 32.8514H393.475C394.593 32.8514 395.408 31.6999 394.854 30.6634L384.52 11.312C384.249 10.8051 383.712 10.5 383.14 10.5Z" stroke="white"/>
</g>
<g filter="url(#filter23_d_17_19)">
<path d="M512.214 31.3756C511.887 28.4877 510.388 27.0437 507.717 27.0437H468.735C468.153 27.0437 467.682 27.4914 467.682 28.0437V31.3514C467.682 31.9037 467.211 32.3514 466.629 32.3514H446.436C445.855 32.3514 445.384 31.9037 445.384 31.3514V12C445.384 11.4477 445.855 11 446.436 11H518.613C522.583 11 526.046 11.764 529.002 13.292C532.719 15.222 534.577 17.9161 534.577 21.3741V31.3514C534.577 31.9037 534.105 32.3514 533.524 32.3514H513.308C512.735 32.3514 512.275 31.916 512.214 31.3756Z" fill="#13121A"/>
<path d="M509.683 79.5812L494.349 59.188C494.152 58.9252 493.833 58.7692 493.493 58.7692H468.735C468.153 58.7692 467.682 59.2169 467.682 59.7692V79C467.682 79.5523 467.211 80 466.629 80H446.436C445.855 80 445.384 79.5523 445.384 79V43.8462C445.384 43.2939 445.855 42.8462 446.436 42.8462H533.524C534.105 42.8462 534.577 43.2939 534.577 43.8462V48.1539C534.577 53.3811 529.931 56.8392 520.64 58.528C520.481 58.5533 520.305 58.5786 520.112 58.6039C519.446 58.6912 519.1 59.4162 519.49 59.9356L533.388 78.4188C533.886 79.0807 533.387 80 532.531 80H510.54C510.2 80 509.881 79.844 509.683 79.5812Z" fill="#13121A"/>
<path d="M529.233 12.8482L529.232 12.8478C526.192 11.2767 522.648 10.5 518.613 10.5H446.436C445.603 10.5 444.884 11.1477 444.884 12V31.3514C444.884 32.2037 445.603 32.8514 446.436 32.8514H466.629C467.462 32.8514 468.182 32.2037 468.182 31.3514V28.0437C468.182 27.7915 468.405 27.5437 468.735 27.5437H507.717C508.962 27.5437 509.866 27.8779 510.498 28.4868C511.135 29.1012 511.562 30.0582 511.717 31.4319C511.806 32.2177 512.474 32.8514 513.308 32.8514H533.524C534.357 32.8514 535.077 32.2037 535.077 31.3514V21.3741C535.077 17.6865 533.073 14.8425 529.233 12.8482ZM520.719 59.0218L520.719 59.0219L520.73 59.0199C525.409 58.1694 528.98 56.8641 531.391 55.0689C533.825 53.2573 535.077 50.9442 535.077 48.1539V43.8462C535.077 42.9938 534.357 42.3462 533.524 42.3462H446.436C445.603 42.3462 444.884 42.9938 444.884 43.8462V79C444.884 79.8523 445.603 80.5 446.436 80.5H466.629C467.462 80.5 468.182 79.8523 468.182 79V59.7692C468.182 59.517 468.405 59.2692 468.735 59.2692H493.493C493.682 59.2692 493.85 59.3562 493.95 59.4885L509.283 79.8817C509.579 80.2751 510.049 80.5 510.54 80.5H532.531C533.749 80.5 534.563 79.1493 533.787 78.1183L519.89 59.6351C519.814 59.5347 519.809 59.4231 519.857 59.3207C519.907 59.2148 520.016 59.1207 520.177 59.0996C520.373 59.0739 520.554 59.0479 520.719 59.0218Z" stroke="white"/>
</g>
<g filter="url(#filter24_d_17_19)">
<path d="M561.629 32.3514H581.822C582.404 32.3514 582.875 31.9037 582.875 31.3514V12C582.875 11.4477 582.404 11 581.822 11H561.629C561.048 11 560.577 11.4477 560.577 12V31.3514C560.577 31.9037 561.048 32.3514 561.629 32.3514Z" fill="#13121A"/>
<path d="M561.629 80H581.822C582.404 80 582.875 79.5523 582.875 79V43.8462C582.875 43.2939 582.404 42.8462 581.822 42.8462H561.629C561.048 42.8462 560.577 43.2939 560.577 43.8462V79C560.577 79.5523 561.048 80 561.629 80Z" fill="#13121A"/>
<path d="M561.629 32.8514H581.822C582.655 32.8514 583.375 32.2037 583.375 31.3514V12C583.375 11.1477 582.655 10.5 581.822 10.5H561.629C560.796 10.5 560.077 11.1477 560.077 12V31.3514C560.077 32.2037 560.796 32.8514 561.629 32.8514ZM561.629 80.5H581.822C582.655 80.5 583.375 79.8523 583.375 79V43.8462C583.375 42.9938 582.655 42.3462 581.822 42.3462H561.629C560.796 42.3462 560.077 42.9938 560.077 43.8462V79C560.077 79.8523 560.796 80.5 561.629 80.5Z" stroke="white"/>
</g>
<g filter="url(#filter25_d_17_19)">
<path d="M608.875 21.3741C608.875 17.9161 610.733 15.2622 614.45 13.4126C617.49 11.8042 620.953 11 624.839 11H694.648C698.533 11 701.996 11.764 705.036 13.292C708.753 15.222 710.611 17.9161 710.611 21.3741V31.3514C710.611 31.9037 710.14 32.3514 709.558 32.3514H609.928C609.346 32.3514 608.875 31.9037 608.875 31.3514V21.3741Z" fill="#13121A"/>
<path d="M624.839 80C623.994 80 622.6 79.7587 620.658 79.2762C612.803 77.4266 608.875 74.1294 608.875 69.3846V43.8462C608.875 43.2939 609.346 42.8462 609.928 42.8462H630.121C630.702 42.8462 631.173 43.2939 631.173 43.8462V58.6486C631.173 61.1416 632.525 62.7902 635.228 63.5944L636.586 64.0254C636.693 64.0595 636.806 64.0769 636.919 64.0769H681.598C683.034 64.0769 684.512 63.514 686.032 62.3881C687.553 61.1818 688.313 59.9353 688.313 58.6486V43.8462C688.313 43.2939 688.784 42.8462 689.366 42.8462H709.558C710.14 42.8462 710.611 43.2939 710.611 43.8462V69.3846C710.611 74.5315 705.923 77.9895 696.548 79.7587C695.619 79.9196 694.985 80 694.648 80H624.839Z" fill="#13121A"/>
<path d="M705.267 12.8482L705.267 12.8482L705.261 12.8452C702.141 11.2775 698.6 10.5 694.648 10.5H624.839C620.885 10.5 617.342 11.3185 614.221 12.9677C612.312 13.919 610.847 15.0929 609.859 16.5034C608.867 17.9202 608.375 19.5498 608.375 21.3741V31.3514C608.375 32.2037 609.095 32.8514 609.928 32.8514H709.558C710.391 32.8514 711.111 32.2037 711.111 31.3514V21.3741C711.111 17.6865 709.107 14.8425 705.267 12.8482ZM696.633 80.2515L696.641 80.2501C701.361 79.3594 704.961 78.034 707.392 76.2407C709.844 74.4316 711.111 72.1394 711.111 69.3846V43.8462C711.111 42.9938 710.391 42.3462 709.558 42.3462H689.366C688.532 42.3462 687.813 42.9938 687.813 43.8462V58.6486C687.813 59.7163 687.186 60.8323 685.728 61.9912C684.269 63.0701 682.895 63.5769 681.598 63.5769H636.919C636.857 63.5769 636.795 63.5673 636.737 63.5488L635.379 63.1178L635.379 63.1178L635.37 63.1152C634.084 62.7325 633.169 62.1635 632.574 61.4378C631.983 60.7176 631.673 59.8001 631.673 58.6486V43.8462C631.673 42.9938 630.954 42.3462 630.121 42.3462H609.928C609.095 42.3462 608.375 42.9938 608.375 43.8462V69.3846C608.375 71.9178 609.433 74.0641 611.499 75.799C613.547 77.5182 616.577 78.8288 620.54 79.7622C622.482 80.2444 623.927 80.5 624.839 80.5H694.648C695.035 80.5 695.709 80.4114 696.633 80.2515Z" stroke="white"/>
</g>
<g filter="url(#filter26_d_17_19)">
<path d="M779.023 30.8349L767.351 11.4835C767.17 11.1835 766.846 11 766.495 11H737.611C737.059 11 736.611 11.4477 736.611 12V31.3514C736.611 31.9037 737.059 32.3514 737.611 32.3514H778.166C778.945 32.3514 779.425 31.5014 779.023 30.8349Z" fill="#13121A"/>
<path d="M779.023 30.8349L767.351 11.4835C767.17 11.1835 766.846 11 766.495 11H737.611C737.059 11 736.611 11.4477 736.611 12V31.3514C736.611 31.9037 737.059 32.3514 737.611 32.3514H778.166C778.945 32.3514 779.425 31.5014 779.023 30.8349Z" fill="#13121A"/>
<path d="M796.342 32.3514H815.524C816.076 32.3514 816.524 31.9037 816.524 31.3514V12C816.524 11.4477 816.076 11 815.524 11H796.342C795.79 11 795.342 11.4477 795.342 12V31.3514C795.342 31.9037 795.79 32.3514 796.342 32.3514Z" fill="#13121A"/>
<path d="M796.342 32.3514H815.524C816.076 32.3514 816.524 31.9037 816.524 31.3514V12C816.524 11.4477 816.076 11 815.524 11H796.342C795.79 11 795.342 11.4477 795.342 12V31.3514C795.342 31.9037 795.79 32.3514 796.342 32.3514Z" fill="#13121A"/>
<path d="M793.527 53.3227L786.374 43.2665C786.187 43.0028 785.883 42.8462 785.559 42.8462H762.999C762.233 42.8462 761.751 43.6727 762.129 44.3393L782.057 79.4931C782.235 79.8064 782.567 80 782.927 80H815.524C816.076 80 816.524 79.5523 816.524 79V43.8462C816.524 43.2939 816.076 42.8462 815.524 42.8462H796.342C795.79 42.8462 795.342 43.2939 795.342 43.8462V52.7431C795.342 53.7169 794.092 54.1163 793.527 53.3227Z" fill="#13121A"/>
<path d="M793.527 53.3227L786.374 43.2665C786.187 43.0028 785.883 42.8462 785.559 42.8462H762.999C762.233 42.8462 761.751 43.6727 762.129 44.3393L782.057 79.4931C782.235 79.8064 782.567 80 782.927 80H815.524C816.076 80 816.524 79.5523 816.524 79V43.8462C816.524 43.2939 816.076 42.8462 815.524 42.8462H796.342C795.79 42.8462 795.342 43.2939 795.342 43.8462V52.7431C795.342 53.7169 794.092 54.1163 793.527 53.3227Z" fill="#13121A"/>
<path d="M737.611 80H756.793C757.345 80 757.793 79.5523 757.793 79V43.8462C757.793 43.2939 757.345 42.8462 756.793 42.8462H737.611C737.059 42.8462 736.611 43.2939 736.611 43.8462V79C736.611 79.5523 737.059 80 737.611 80Z" fill="#13121A"/>
<path d="M737.611 80H756.793C757.345 80 757.793 79.5523 757.793 79V43.8462C757.793 43.2939 757.345 42.8462 756.793 42.8462H737.611C737.059 42.8462 736.611 43.2939 736.611 43.8462V79C736.611 79.5523 737.059 80 737.611 80Z" fill="#13121A"/>
<path d="M736.611 31.3514V12C736.611 11.4477 737.059 11 737.611 11H766.495C766.846 11 767.17 11.1835 767.351 11.4835L779.023 30.8349C779.425 31.5014 778.945 32.3514 778.166 32.3514H737.611C737.059 32.3514 736.611 31.9037 736.611 31.3514ZM796.342 32.3514H815.524C816.076 32.3514 816.524 31.9037 816.524 31.3514V12C816.524 11.4477 816.076 11 815.524 11H796.342C795.79 11 795.342 11.4477 795.342 12V31.3514C795.342 31.9037 795.79 32.3514 796.342 32.3514ZM793.527 53.3227L786.374 43.2665C786.187 43.0028 785.883 42.8462 785.559 42.8462H762.999C762.233 42.8462 761.751 43.6727 762.129 44.3393L782.057 79.4931C782.235 79.8064 782.567 80 782.927 80H815.524C816.076 80 816.524 79.5523 816.524 79V43.8462C816.524 43.2939 816.076 42.8462 815.524 42.8462H796.342C795.79 42.8462 795.342 43.2939 795.342 43.8462V52.7431C795.342 53.7169 794.092 54.1163 793.527 53.3227ZM737.611 80H756.793C757.345 80 757.793 79.5523 757.793 79V43.8462C757.793 43.2939 757.345 42.8462 756.793 42.8462H737.611C737.059 42.8462 736.611 43.2939 736.611 43.8462V79C736.611 79.5523 737.059 80 737.611 80Z" stroke="white"/>
</g>
<defs>
<filter id="filter0_f_17_19" x="751.4" y="33.4" width="75.2" height="56.2" filterUnits="userSpaceOnUse" color-interpolation-filters="sRGB">
<feFlood flood-opacity="0" result="BackgroundImageFix"/>
<feBlend mode="normal" in="SourceGraphic" in2="BackgroundImageFix" result="shape"/>
<feGaussianBlur stdDeviation="4.3" result="effect1_foregroundBlur_17_19"/>
</filter>
<filter id="filter1_f_17_19" x="726.9" y="33.4" width="40.7" height="55.3875" filterUnits="userSpaceOnUse" color-interpolation-filters="sRGB">
<feFlood flood-opacity="0" result="BackgroundImageFix"/>
<feBlend mode="normal" in="SourceGraphic" in2="BackgroundImageFix" result="shape"/>
<feGaussianBlur stdDeviation="4.3" result="effect1_foregroundBlur_17_19"/>
</filter>
<filter id="filter2_f_17_19" x="785.4" y="1.4" width="41.2" height="40.2" filterUnits="userSpaceOnUse" color-interpolation-filters="sRGB">
<feFlood flood-opacity="0" result="BackgroundImageFix"/>
<feBlend mode="normal" in="SourceGraphic" in2="BackgroundImageFix" result="shape"/>
<feGaussianBlur stdDeviation="4.3" result="effect1_foregroundBlur_17_19"/>
</filter>
<filter id="filter3_f_17_19" x="726.4" y="0.4" width="62.2" height="41.2" filterUnits="userSpaceOnUse" color-interpolation-filters="sRGB">
<feFlood flood-opacity="0" result="BackgroundImageFix"/>
<feBlend mode="normal" in="SourceGraphic" in2="BackgroundImageFix" result="shape"/>
<feGaussianBlur stdDeviation="4.3" result="effect1_foregroundBlur_17_19"/>
</filter>
<filter id="filter4_f_17_19" x="599.4" y="33.4" width="122.2" height="56.2" filterUnits="userSpaceOnUse" color-interpolation-filters="sRGB">
<feFlood flood-opacity="0" result="BackgroundImageFix"/>
<feBlend mode="normal" in="SourceGraphic" in2="BackgroundImageFix" result="shape"/>
<feGaussianBlur stdDeviation="4.3" result="effect1_foregroundBlur_17_19"/>
</filter>
<filter id="filter5_f_17_19" x="599.9" y="2.4" width="120.2" height="39.2" filterUnits="userSpaceOnUse" color-interpolation-filters="sRGB">
<feFlood flood-opacity="0" result="BackgroundImageFix"/>
<feBlend mode="normal" in="SourceGraphic" in2="BackgroundImageFix" result="shape"/>
<feGaussianBlur stdDeviation="4.3" result="effect1_foregroundBlur_17_19"/>
</filter>
<filter id="filter6_f_17_19" x="550.9" y="33.4" width="41.7" height="56.2" filterUnits="userSpaceOnUse" color-interpolation-filters="sRGB">
<feFlood flood-opacity="0" result="BackgroundImageFix"/>
<feBlend mode="normal" in="SourceGraphic" in2="BackgroundImageFix" result="shape"/>
<feGaussianBlur stdDeviation="4.3" result="effect1_foregroundBlur_17_19"/>
</filter>
<filter id="filter7_f_17_19" x="550.4" y="1.4" width="42.2" height="40.2" filterUnits="userSpaceOnUse" color-interpolation-filters="sRGB">
<feFlood flood-opacity="0" result="BackgroundImageFix"/>
<feBlend mode="normal" in="SourceGraphic" in2="BackgroundImageFix" result="shape"/>
<feGaussianBlur stdDeviation="4.3" result="effect1_foregroundBlur_17_19"/>
</filter>
<filter id="filter8_f_17_19" x="437.4" y="32.3804" width="105.708" height="56.2196" filterUnits="userSpaceOnUse" color-interpolation-filters="sRGB">
<feFlood flood-opacity="0" result="BackgroundImageFix"/>
<feBlend mode="normal" in="SourceGraphic" in2="BackgroundImageFix" result="shape"/>
<feGaussianBlur stdDeviation="4.3" result="effect1_foregroundBlur_17_19"/>
</filter>
<filter id="filter9_f_17_19" x="437.4" y="2.4" width="105.267" height="39.6853" filterUnits="userSpaceOnUse" color-interpolation-filters="sRGB">
<feFlood flood-opacity="0" result="BackgroundImageFix"/>
<feBlend mode="normal" in="SourceGraphic" in2="BackgroundImageFix" result="shape"/>
<feGaussianBlur stdDeviation="4.3" result="effect1_foregroundBlur_17_19"/>
</filter>
<filter id="filter10_f_17_19" x="320.4" y="33.4" width="110.2" height="56.2" filterUnits="userSpaceOnUse" color-interpolation-filters="sRGB">
<feFlood flood-opacity="0" result="BackgroundImageFix"/>
<feBlend mode="normal" in="SourceGraphic" in2="BackgroundImageFix" result="shape"/>
<feGaussianBlur stdDeviation="4.3" result="effect1_foregroundBlur_17_19"/>
</filter>
<filter id="filter11_f_17_19" x="344.4" y="0.4" width="60.2" height="42.2" filterUnits="userSpaceOnUse" color-interpolation-filters="sRGB">
<feFlood flood-opacity="0" result="BackgroundImageFix"/>
<feBlend mode="normal" in="SourceGraphic" in2="BackgroundImageFix" result="shape"/>
<feGaussianBlur stdDeviation="4.3" result="effect1_foregroundBlur_17_19"/>
</filter>
<filter id="filter12_f_17_19" x="228.4" y="32.4" width="86.9659" height="57.2327" filterUnits="userSpaceOnUse" color-interpolation-filters="sRGB">
<feFlood flood-opacity="0" result="BackgroundImageFix"/>
<feBlend mode="normal" in="SourceGraphic" in2="BackgroundImageFix" result="shape"/>
<feGaussianBlur stdDeviation="4.3" result="effect1_foregroundBlur_17_19"/>
</filter>
<filter id="filter13_f_17_19" x="227.4" y="1.4" width="41.3394" height="41.3394" filterUnits="userSpaceOnUse" color-interpolation-filters="sRGB">
<feFlood flood-opacity="0" result="BackgroundImageFix"/>
<feBlend mode="normal" in="SourceGraphic" in2="BackgroundImageFix" result="shape"/>
<feGaussianBlur stdDeviation="4.3" result="effect1_foregroundBlur_17_19"/>
</filter>
<filter id="filter14_f_17_19" x="132.4" y="32.4" width="90.2" height="57.2334" filterUnits="userSpaceOnUse" color-interpolation-filters="sRGB">
<feFlood flood-opacity="0" result="BackgroundImageFix"/>
<feBlend mode="normal" in="SourceGraphic" in2="BackgroundImageFix" result="shape"/>
<feGaussianBlur stdDeviation="4.3" result="effect1_foregroundBlur_17_19"/>
</filter>
<filter id="filter15_f_17_19" x="132.4" y="1.4" width="88.8431" height="40.2062" filterUnits="userSpaceOnUse" color-interpolation-filters="sRGB">
<feFlood flood-opacity="0" result="BackgroundImageFix"/>
<feBlend mode="normal" in="SourceGraphic" in2="BackgroundImageFix" result="shape"/>
<feGaussianBlur stdDeviation="4.3" result="effect1_foregroundBlur_17_19"/>
</filter>
<filter id="filter16_f_17_19" x="39.3944" y="32.4" width="74.2119" height="58.2" filterUnits="userSpaceOnUse" color-interpolation-filters="sRGB">
<feFlood flood-opacity="0" result="BackgroundImageFix"/>
<feBlend mode="normal" in="SourceGraphic" in2="BackgroundImageFix" result="shape"/>
<feGaussianBlur stdDeviation="4.3" result="effect1_foregroundBlur_17_19"/>
</filter>
<filter id="filter17_f_17_19" x="75.3929" y="0.4" width="53.2159" height="42.2" filterUnits="userSpaceOnUse" color-interpolation-filters="sRGB">
<feFlood flood-opacity="0" result="BackgroundImageFix"/>
<feBlend mode="normal" in="SourceGraphic" in2="BackgroundImageFix" result="shape"/>
<feGaussianBlur stdDeviation="4.3" result="effect1_foregroundBlur_17_19"/>
</filter>
<filter id="filter18_f_17_19" x="26.3915" y="0.4" width="53.2155" height="42.2" filterUnits="userSpaceOnUse" color-interpolation-filters="sRGB">
<feFlood flood-opacity="0" result="BackgroundImageFix"/>
<feBlend mode="normal" in="SourceGraphic" in2="BackgroundImageFix" result="shape"/>
<feGaussianBlur stdDeviation="4.3" result="effect1_foregroundBlur_17_19"/>
</filter>
<filter id="filter19_d_17_19" x="32.4702" y="6" width="89.419" height="79" filterUnits="userSpaceOnUse" color-interpolation-filters="sRGB">
<feFlood flood-opacity="0" result="BackgroundImageFix"/>
<feColorMatrix in="SourceAlpha" type="matrix" values="0 0 0 0 0 0 0 0 0 0 0 0 0 0 0 0 0 0 127 0" result="hardAlpha"/>
<feOffset/>
<feGaussianBlur stdDeviation="2"/>
<feComposite in2="hardAlpha" operator="out"/>
<feColorMatrix type="matrix" values="0 0 0 0 1 0 0 0 0 1 0 0 0 0 1 0 0 0 0.25 0"/>
<feBlend mode="normal" in2="BackgroundImageFix" result="effect1_dropShadow_17_19"/>
<feBlend mode="normal" in="SourceGraphic" in2="effect1_dropShadow_17_19" result="shape"/>
</filter>
<filter id="filter20_d_17_19" x="137.884" y="6" width="78.1619" height="79" filterUnits="userSpaceOnUse" color-interpolation-filters="sRGB">
<feFlood flood-opacity="0" result="BackgroundImageFix"/>
<feColorMatrix in="SourceAlpha" type="matrix" values="0 0 0 0 0 0 0 0 0 0 0 0 0 0 0 0 0 0 127 0" result="hardAlpha"/>
<feOffset/>
<feGaussianBlur stdDeviation="2"/>
<feComposite in2="hardAlpha" operator="out"/>
<feColorMatrix type="matrix" values="0 0 0 0 1 0 0 0 0 1 0 0 0 0 1 0 0 0 0.25 0"/>
<feBlend mode="normal" in2="BackgroundImageFix" result="effect1_dropShadow_17_19"/>
<feBlend mode="normal" in="SourceGraphic" in2="effect1_dropShadow_17_19" result="shape"/>
</filter>
<filter id="filter21_d_17_19" x="232.045" y="6" width="78.1619" height="79" filterUnits="userSpaceOnUse" color-interpolation-filters="sRGB">
<feFlood flood-opacity="0" result="BackgroundImageFix"/>
<feColorMatrix in="SourceAlpha" type="matrix" values="0 0 0 0 0 0 0 0 0 0 0 0 0 0 0 0 0 0 127 0" result="hardAlpha"/>
<feOffset/>
<feGaussianBlur stdDeviation="2"/>
<feComposite in2="hardAlpha" operator="out"/>
<feColorMatrix type="matrix" values="0 0 0 0 1 0 0 0 0 1 0 0 0 0 1 0 0 0 0.25 0"/>
<feBlend mode="normal" in2="BackgroundImageFix" result="effect1_dropShadow_17_19"/>
<feBlend mode="normal" in="SourceGraphic" in2="effect1_dropShadow_17_19" result="shape"/>
</filter>
<filter id="filter22_d_17_19" x="326.2" y="6" width="98.1906" height="79" filterUnits="userSpaceOnUse" color-interpolation-filters="sRGB">
<feFlood flood-opacity="0" result="BackgroundImageFix"/>
<feColorMatrix in="SourceAlpha" type="matrix" values="0 0 0 0 0 0 0 0 0 0 0 0 0 0 0 0 0 0 127 0" result="hardAlpha"/>
<feOffset/>
<feGaussianBlur stdDeviation="2"/>
<feComposite in2="hardAlpha" operator="out"/>
<feColorMatrix type="matrix" values="0 0 0 0 1 0 0 0 0 1 0 0 0 0 1 0 0 0 0.25 0"/>
<feBlend mode="normal" in2="BackgroundImageFix" result="effect1_dropShadow_17_19"/>
<feBlend mode="normal" in="SourceGraphic" in2="effect1_dropShadow_17_19" result="shape"/>
</filter>
<filter id="filter23_d_17_19" x="440.384" y="6" width="99.1932" height="79" filterUnits="userSpaceOnUse" color-interpolation-filters="sRGB">
<feFlood flood-opacity="0" result="BackgroundImageFix"/>
<feColorMatrix in="SourceAlpha" type="matrix" values="0 0 0 0 0 0 0 0 0 0 0 0 0 0 0 0 0 0 127 0" result="hardAlpha"/>
<feOffset/>
<feGaussianBlur stdDeviation="2"/>
<feComposite in2="hardAlpha" operator="out"/>
<feColorMatrix type="matrix" values="0 0 0 0 1 0 0 0 0 1 0 0 0 0 1 0 0 0 0.25 0"/>
<feBlend mode="normal" in2="BackgroundImageFix" result="effect1_dropShadow_17_19"/>
<feBlend mode="normal" in="SourceGraphic" in2="effect1_dropShadow_17_19" result="shape"/>
</filter>
<filter id="filter24_d_17_19" x="555.577" y="6" width="32.2983" height="79" filterUnits="userSpaceOnUse" color-interpolation-filters="sRGB">
<feFlood flood-opacity="0" result="BackgroundImageFix"/>
<feColorMatrix in="SourceAlpha" type="matrix" values="0 0 0 0 0 0 0 0 0 0 0 0 0 0 0 0 0 0 127 0" result="hardAlpha"/>
<feOffset/>
<feGaussianBlur stdDeviation="2"/>
<feComposite in2="hardAlpha" operator="out"/>
<feColorMatrix type="matrix" values="0 0 0 0 1 0 0 0 0 1 0 0 0 0 1 0 0 0 0.25 0"/>
<feBlend mode="normal" in2="BackgroundImageFix" result="effect1_dropShadow_17_19"/>
<feBlend mode="normal" in="SourceGraphic" in2="effect1_dropShadow_17_19" result="shape"/>
</filter>
<filter id="filter25_d_17_19" x="603.875" y="6" width="111.736" height="79" filterUnits="userSpaceOnUse" color-interpolation-filters="sRGB">
<feFlood flood-opacity="0" result="BackgroundImageFix"/>
<feColorMatrix in="SourceAlpha" type="matrix" values="0 0 0 0 0 0 0 0 0 0 0 0 0 0 0 0 0 0 127 0" result="hardAlpha"/>
<feOffset/>
<feGaussianBlur stdDeviation="2"/>
<feComposite in2="hardAlpha" operator="out"/>
<feColorMatrix type="matrix" values="0 0 0 0 1 0 0 0 0 1 0 0 0 0 1 0 0 0 0.25 0"/>
<feBlend mode="normal" in2="BackgroundImageFix" result="effect1_dropShadow_17_19"/>
<feBlend mode="normal" in="SourceGraphic" in2="effect1_dropShadow_17_19" result="shape"/>
</filter>
<filter id="filter26_d_17_19" x="732.111" y="6.5" width="88.913" height="78" filterUnits="userSpaceOnUse" color-interpolation-filters="sRGB">
<feFlood flood-opacity="0" result="BackgroundImageFix"/>
<feColorMatrix in="SourceAlpha" type="matrix" values="0 0 0 0 0 0 0 0 0 0 0 0 0 0 0 0 0 0 127 0" result="hardAlpha"/>
<feOffset/>
<feGaussianBlur stdDeviation="2"/>
<feComposite in2="hardAlpha" operator="out"/>
<feColorMatrix type="matrix" values="0 0 0 0 1 0 0 0 0 1 0 0 0 0 1 0 0 0 0.25 0"/>
<feBlend mode="normal" in2="BackgroundImageFix" result="effect1_dropShadow_17_19"/>
<feBlend mode="normal" in="SourceGraphic" in2="effect1_dropShadow_17_19" result="shape"/>
</filter>
</defs>
</svg>
